<svg width="42" height="42" viewBox="0 0 42 42" fill="none" xmlns="http://www.w3.org/2000/svg">
<mask id="path-1-inside-1_3246_3194" fill="white">
<path d="M0 0H38C40.2091 0 42 1.79086 42 4V38C42 40.2091 40.2091 42 38 42H0V0Z"/>
</mask>
<path d="M0 0H38C40.2091 0 42 1.79086 42 4V38C42 40.2091 40.2091 42 38 42H0V0Z" fill="white"/>
<path d="M19.9999 25.172V13H21.9999V25.172L27.3639 19.808L28.7779 21.222L20.9999 29L13.2219 21.222L14.6359 19.808L19.9999 25.172Z" fill="#1C1C1C"/>
<path d="M0 -1H38C40.7614 -1 43 1.23858 43 4H41C41 2.34315 39.6569 1 38 1H0V-1ZM43 38C43 40.7614 40.7614 43 38 43H0V41H38C39.6569 41 41 39.6569 41 38H43ZM0 42V0V42ZM38 -1C40.7614 -1 43 1.23858 43 4V38C43 40.7614 40.7614 43 38 43V41C39.6569 41 41 39.6569 41 38V4C41 2.34315 39.6569 1 38 1V-1Z" fill="currentColor" fill-opacity="0.15" mask="url(#path-1-inside-1_3246_3194)"/>
</svg>
