<svg width="24" height="24" viewBox="0 0 24 24" fill="none" xmlns="http://www.w3.org/2000/svg">
<path d="M9.342 18.7819L7.411 18.2639L8.198 15.3249C7.01997 14.8904 5.92512 14.2572 4.961 13.4529L2.808 15.6069L1.393 14.1919L3.547 12.0389C2.33108 10.5826 1.51409 8.83563 1.176 6.96886L3.144 6.60986C3.903 10.8119 7.579 13.9999 12 13.9999C16.42 13.9999 20.097 10.8119 20.856 6.60986L22.824 6.96786C22.4864 8.83488 21.6697 10.5822 20.454 12.0389L22.607 14.1919L21.192 15.6069L19.039 13.4529C18.0749 14.2572 16.98 14.8904 15.802 15.3249L16.589 18.2649L14.658 18.7819L13.87 15.8419C12.6324 16.0539 11.3676 16.0539 10.13 15.8419L9.342 18.7819Z" fill="currentColor"/>
</svg>
