<svg width="40" height="40" viewBox="0 0 40 40" fill="none" xmlns="http://www.w3.org/2000/svg">
<path fill-rule="evenodd" clip-rule="evenodd" d="M20 40C31.0457 40 40 31.0457 40 20C40 8.9543 31.0457 0 20 0C8.9543 0 0 8.9543 0 20C0 31.0457 8.9543 40 20 40ZM20 36C28.8366 36 36 28.8366 36 20C36 11.1634 28.8366 4 20 4C11.1634 4 4 11.1634 4 20C4 28.8366 11.1634 36 20 36Z" fill="#DCDCDE"/>
<path fill-rule="evenodd" clip-rule="evenodd" d="M38 20C39.1046 20 40.0105 19.102 39.9015 18.0028C38.9645 8.55175 31.4483 1.03553 21.9972 0.0985064C20.898 -0.0104713 20 0.895464 20 2.00003V2.00003C20 3.1046 20.8999 3.98692 21.996 4.12333C29.2367 5.02438 34.9757 10.7634 35.8767 18.004C36.0131 19.1001 36.8954 20 38 20V20Z" fill="#1F75CB"/>
</svg>
